<svg xmlns="http://www.w3.org/2000/svg" viewBox="0 0 726.85 131.52">
  <title>Asset 1</title>
  <path fill="#333" d="M83,0c9.16,0,15.39,6.23,15.39,15.39V116.12c0,9.16-6.23,15.39-15.39,15.39H15.39C6.23,131.52,0,125.28,0,116.12V15.39C0,6.23,6.23,0,15.39,0ZM64.49,30.59a2.16,2.16,0,0,0-2.14-2.14H35.66a2.14,2.14,0,0,0-1.75,2.14v70.73a1.88,1.88,0,0,0,1.75,1.75H62.35a2,2,0,0,0,2.14-1.75Z"/>
  <path fill="#333" d="M164.34,60.51l-21.14,71H125.53l-20.62-71h19.57l9.89,45.13,11.89-45.13Z"/>
  <path fill="#333" d="M177.59,60.51H224V75.76H195.79V88.18h24.4v15.15h-24.4v12.83H224v15.36H177.59Z"/>
  <path fill="#333" d="M286.25,60.51a8,8,0,0,1,8,8V101a8.13,8.13,0,0,1-8,8h-.53l8.73,22.51H276.58L267.74,109H260v22.51h-18.3v-71Zm-10.2,16.3a1.13,1.13,0,0,0-.95-1.05H260V94.7H275.1a1.12,1.12,0,0,0,.95-.95Z"/>
  <path fill="#333" d="M390.7,0a14.8,14.8,0,0,1,14.81,14.81V82.42A15.19,15.19,0,0,1,390.7,97.22H344.14v34.29h-33.9V0ZM369.86,69.36a1.88,1.88,0,0,0,1.75-1.75V30.2a1.92,1.92,0,0,0-1.75-1.95H344.14V69.36Z"/>
  <path fill="#333" d="M468.62,131.52h-18.3V103.32H433v28.19h-18.3v-71H433V87.65h17.36V60.51h18.3Z"/>
  <path fill="#333" d="M533,60.51a7.9,7.9,0,0,1,8.31,8.31v54.38a7.9,7.9,0,0,1-8.31,8.31h-36.5a7.9,7.9,0,0,1-8.31-8.31V68.82a7.9,7.9,0,0,1,8.31-8.31ZM523,77a1.17,1.17,0,0,0-1.16-1.16H507.43a1.15,1.15,0,0,0-.95,1.16v38.19a1,1,0,0,0,.95.95h14.41a1.07,1.07,0,0,0,1.16-.95Z"/>
  <path fill="#333" d="M604.73,60.51V75.87H588.63v55.65h-18.3V75.87H554.23V60.51Z"/>
  <path fill="#333" d="M618.29,60.51h46.39V75.76H636.49V88.18H660.9v15.15H636.49v12.83h28.19v15.36H618.29Z"/>
  <path fill="#333" d="M680.88,116.16h26.61c.74,0,1.16-.42,1.16-.95V104.9c0-.53-.42-.95-1.16-.95h-18.3a7.9,7.9,0,0,1-8.31-8.31V68.82a7.9,7.9,0,0,1,8.31-8.31H725.9V75.76H700.23a1.08,1.08,0,0,0-1.05,1.16V87.33a1,1,0,0,0,1.05.95h18.3a7.9,7.9,0,0,1,8.31,8.31v26.61a7.9,7.9,0,0,1-8.31,8.31H680.88Z"/>
</svg>
