<svg xmlns="http://www.w3.org/2000/svg" viewBox="0 0 234.12 149.05"><defs><style>.a{fill:#db37d3;}</style></defs><title>Asset 2</title><path class="a" d="M7.71,142a3.88,3.88,0,0,1,.09-3.38,4.78,4.78,0,0,1,2.66-2.31q2.09-.8,4.58,1a17.52,17.52,0,0,0,5.56,2.9q4.54,1,11.44-1.65A28.78,28.78,0,0,0,43.21,131q5.84-6.44,3.34-13-2.06-5.37-9.34-6.14a31.25,31.25,0,0,0-13.85,2,26.6,26.6,0,0,1-12.59,1.46Q3.4,114.2.93,107.76-2,100.18,4.22,90.62q6-9.07,14.73-12.44A38.69,38.69,0,0,1,28.82,76q7.61-.81,8.7,2,1.44,3.75-2.4,5.22a36,36,0,0,1-6.32,1.37,33.42,33.42,0,0,0-6.94,1.66,21.31,21.31,0,0,0-10,7.61Q8.32,99,10.12,103.7q1.36,3.54,8.22,2.57a73.25,73.25,0,0,0,9.47-2.46q10-3,17.6.29a17.42,17.42,0,0,1,9.65,10.13q3.89,10.14-3.16,19.78A36.5,36.5,0,0,1,35,146.48,36.11,36.11,0,0,1,19.61,149Q10.29,148.35,7.71,142Z"/><path class="a" d="M87,62.89A57.22,57.22,0,0,1,79.9,65L72.7,66.7q3.77,12.77,8.1,24.06,1.14,3,3,7.3t3,7.3q1.54,4,2.5,7.4l13.35-5.32a4.3,4.3,0,0,1,3.49.1,4.58,4.58,0,0,1,2.4,2.62,4.63,4.63,0,0,1,0,3.6,4.29,4.29,0,0,1-2.52,2.41q-2.39.92-7.12,2.85t-7.12,2.85a70.92,70.92,0,0,0-8.11,4,71.15,71.15,0,0,1-8.15,4,4.3,4.3,0,0,1-3.49-.1,4.59,4.59,0,0,1-2.4-2.62,4.66,4.66,0,0,1,0-3.57,4.26,4.26,0,0,1,2.51-2.43A80.94,80.94,0,0,0,81,116.8a69.72,69.72,0,0,0-2.6-8q-1.13-2.94-3-7.07t-3-7q-3.77-9.84-8.23-25l-5.47,2.29-5.49,2.25a4.46,4.46,0,0,1-3.54-.06,4.57,4.57,0,0,1-2.45-2.68q-1.52-4,2.34-5.88,3.32-1.66,12.78-5.29a166,166,0,0,1,22-6.32q4-.9,5.54,3.1a4.21,4.21,0,0,1-.22,3.75A5,5,0,0,1,87,62.89Z"/><path class="a" d="M142.93,47.49q-2.73,1-5.32-1.63-2.24-2.27-3.49-2.47-1.08-.13-4.61,1.23Q123.34,47,119.43,59.34q-5.36,16.62-1,28a14.7,14.7,0,0,0,7.16,8.1,12.06,12.06,0,0,0,10.3.74,20.64,20.64,0,0,0,8-5.64,70.9,70.9,0,0,0,5.66-7.93q1.74-2.72,3-3.19a4.23,4.23,0,0,1,3.6.21,4.85,4.85,0,0,1,2.42,2.62,4.71,4.71,0,0,1-.33,4q-7.42,14.28-18.93,18.69a20.66,20.66,0,0,1-17.51-1.05A24.07,24.07,0,0,1,109.91,90.6q-5.54-14.44.75-34.25,5.24-16.52,15.51-20.46A35.28,35.28,0,0,1,130,34.64a15.69,15.69,0,0,1,3.18-.51,4.84,4.84,0,0,1,3-3.66q2.94-1.13,5.19,2.46a47.79,47.79,0,0,1,3.93,8.22,5.53,5.53,0,0,1,.24,3.43A4,4,0,0,1,142.93,47.49Z"/><path class="a" d="M216.59,76.08q-6.48,2.48-22.81-4.3l-17.66-7.94.23.6,8.52,22.34q1.62,4.22-2.09,5.64a4.79,4.79,0,0,1-4.69-.64,7.06,7.06,0,0,1-2.65-3.33q-3.82-10-10.84-30t-10.82-30a4.66,4.66,0,0,1,0-3.58,4.26,4.26,0,0,1,2.51-2.43,4.31,4.31,0,0,1,3.54.11,4.66,4.66,0,0,1,2.41,2.64q1.58,4.13,4.42,13.06,2.72,8.63,4.48,13.09,3.63-7.6,7.7-18.54l6.79-18.88a4.38,4.38,0,0,1,6.12-2.78,4.46,4.46,0,0,1,2.51,2.6q1.08,2.81-5.24,19.21-4.4,11.22-9.44,22.29,7.17,3.41,21.93,9.28l5.91,2a18.94,18.94,0,0,0,6.32.8q3.79-.18,5,2.93a5.2,5.2,0,0,1,.17,3.11A3.65,3.65,0,0,1,216.59,76.08Z"/><path class="a" d="M209.43,2.74l18.18,47.42q1.45,3.79-2.34,5.25T220,53.06q-.67-1.74-2.11-5.18t-2.09-5.14q-2.37-6.18-7-18.55t-7-18.55Q200.39,1.86,204.18.4T209.43,2.74Zm24.43,63.59a3.77,3.77,0,0,1-.19,3.13,4.21,4.21,0,0,1-2.31,2.18q-1.71.65-4.26-.91a6.82,6.82,0,0,1-3.13-3.2,3.7,3.7,0,0,1,.2-3.11,4.31,4.31,0,0,1,2.37-2.18q1.66-.64,4.26.91A6.88,6.88,0,0,1,233.86,66.33Z"/></svg>